<?xml version="1.0" encoding="utf-8"?>
<!-- Generator: Adobe Illustrator 28.3.0, SVG Export Plug-In . SVG Version: 6.00 Build 0)  -->
<svg version="1.1" id="Layer_1" xmlns="http://www.w3.org/2000/svg" xmlns:xlink="http://www.w3.org/1999/xlink" x="0px" y="0px"
	 viewBox="0 0 111.9 40" style="enable-background:new 0 0 111.9 40;" xml:space="preserve">
<style type="text/css">
	.st0{fill:url(#SVGID_1_);}
	.st1{fill:#9945FF;}
	.st2{fill:#444444;}
</style>
<g>
	<g>
		<linearGradient id="SVGID_1_" gradientUnits="userSpaceOnUse" x1="15.8505" y1="6.0868" x2="15.8505" y2="34.649">
			<stop  offset="0" style="stop-color:#9B44FE"/>
			<stop  offset="1" style="stop-color:#15F094"/>
		</linearGradient>
		<path class="st0" d="M15.9,4.1C7.1,4.1,0,11.2,0,20c0,8.8,7.1,15.9,15.9,15.9S31.7,28.8,31.7,20C31.7,11.2,24.6,4.1,15.9,4.1z
			 M24.4,18.9h-5.3v10.8h-2.2v-13h5.3v-2.1H9.5v2.1h5.3v13h-2.2V18.9H7.3v-6.6h17.2V18.9z"/>
	</g>
	<g>
		<g>
			<path class="st1" d="M35.6,12.1v1.8h3.5v7h1.8v-7h3.5v-1.8H35.6z"/>
			<path class="st1" d="M53.4,13.8v-1.8h-8.1v8.8h8.1v-1.8h-6.3v-1.7h5.1v-1.8h-5.1v-1.7H53.4z"/>
			<path class="st1" d="M56.4,19.1V12h-1.8v8.8h8.8v-1.8H56.4z"/>
			<path class="st1" d="M72.4,13.8v-1.8h-8.1v8.8h8.1v-1.8H66v-1.7h5.1v-1.8H66v-1.7H72.4z"/>
			<path class="st1" d="M73.1,12.1v1.8h3.5v7h1.8v-7H82v-1.8H73.1z"/>
			<path class="st1" d="M89.6,17.9l-0.1-0.1h-2.3l0.1,0.2l2.5,3h1.9v-0.6L89.6,17.9z M91.5,12.9c-0.2-0.3-0.4-0.5-0.6-0.6
				c-0.3-0.2-0.6-0.2-0.9-0.2h-7v8.8h1.8v-3l2.7,0l2.3,0h0.3c0.3,0,0.6-0.1,0.9-0.2c0.3-0.2,0.5-0.4,0.6-0.6
				c0.2-0.3,0.2-0.6,0.2-0.9v-2.3C91.7,13.5,91.6,13.2,91.5,12.9z M89.9,16.1C89.9,16.1,89.9,16.1,89.9,16.1
				C89.9,16.1,89.9,16.1,89.9,16.1l-5.2,0.1c0,0,0,0-0.1,0c0,0,0,0,0,0v-2.2c0,0,0,0,0-0.1c0,0,0,0,0.1,0h5.1c0,0,0,0,0.1,0
				c0,0,0,0,0,0.1V16.1z"/>
			<path class="st1" d="M101.5,12.9c-0.2-0.3-0.4-0.5-0.6-0.6c-0.3-0.2-0.6-0.2-0.9-0.2h-5.3c-0.3,0-0.6,0.1-0.9,0.2
				c-0.3,0.2-0.5,0.4-0.6,0.6C93,13.2,93,13.5,93,13.8v5.3c0,0.3,0.1,0.6,0.2,0.9c0.2,0.3,0.4,0.5,0.6,0.6c0.3,0.2,0.6,0.2,0.9,0.2
				h5.3c0.3,0,0.6-0.1,0.9-0.2c0.3-0.2,0.5-0.4,0.6-0.6c0.2-0.3,0.2-0.6,0.2-0.9v-5.3C101.8,13.5,101.7,13.2,101.5,12.9z M100,19
				C100,19,100,19.1,100,19C100,19.1,99.9,19.1,100,19l-5.2,0.1c0,0,0,0-0.1,0c0,0,0,0,0-0.1v-5.1c0,0,0,0,0-0.1c0,0,0,0,0.1,0h5.1
				c0,0,0,0,0.1,0c0,0,0,0,0,0.1V19z"/>
			<path class="st1" d="M110.1,12.1v6.1l-5.2-6.1h-1.9v8.8h1.8v-6.2l5.2,6.2h1.9v-8.8H110.1z"/>
		</g>
		<g>
			<path class="st2" d="M45.4,24.4v0.5h1.5v3h0.5v-3H49v-0.5H45.4z"/>
			<path class="st2" d="M53.7,24.9v-0.5h-3.2V28h3.2v-0.5H51v-1h2.2v-0.5H51v-1H53.7z"/>
			<path class="st2" d="M55.8,25c0,0,0.1-0.1,0.1-0.1h2.8v-0.5h-2.9c-0.1,0-0.2,0-0.3,0.1c-0.1,0.1-0.2,0.1-0.2,0.2
				c-0.1,0.1-0.1,0.2-0.1,0.3v2.3c0,0.1,0,0.2,0.1,0.3c0.1,0.1,0.1,0.2,0.2,0.2c0.1,0.1,0.2,0.1,0.3,0.1h2.9v-0.5H56
				c-0.1,0-0.1,0-0.1-0.1c0,0-0.1-0.1-0.1-0.1v-2.1C55.8,25.1,55.8,25,55.8,25z"/>
			<path class="st2" d="M63.5,24.4v1.5h-2.6v-1.5h-0.5V28h0.5v-1.5h2.6V28H64v-3.5H63.5z"/>
			<path class="st2" d="M68.6,24.4v2.8l-2.4-2.8h-0.6V28h0.5v-2.8l2.4,2.8h0.6v-3.5H68.6z"/>
			<path class="st2" d="M74.3,24.7c-0.1-0.1-0.1-0.2-0.2-0.2c-0.1-0.1-0.2-0.1-0.3-0.1h-2.3c-0.1,0-0.2,0-0.3,0.1
				c-0.1,0.1-0.2,0.1-0.2,0.2c-0.1,0.1-0.1,0.2-0.1,0.3v2.3c0,0.1,0,0.2,0.1,0.3c0.1,0.1,0.1,0.2,0.2,0.2c0.1,0.1,0.2,0.1,0.3,0.1
				h2.3c0.1,0,0.2,0,0.3-0.1c0.1-0.1,0.2-0.1,0.2-0.2c0.1-0.1,0.1-0.2,0.1-0.3v-2.3C74.3,24.9,74.3,24.8,74.3,24.7z M73.8,27.3
				C73.8,27.3,73.8,27.4,73.8,27.3c-0.1,0.1-0.1,0.1-0.1,0.1h-2.2c0,0-0.1,0-0.1,0c0,0,0-0.1,0-0.1v-2.2c0,0,0-0.1,0-0.1
				c0,0,0.1,0,0.1,0h2.2c0,0,0.1,0,0.1,0c0,0,0,0.1,0,0.1V27.3z"/>
			<path class="st2" d="M76.5,27.4v-3H76V28h3.5v-0.5H76.5z"/>
			<path class="st2" d="M84.3,24.7c-0.1-0.1-0.1-0.2-0.2-0.2c-0.1-0.1-0.2-0.1-0.3-0.1h-2.3c-0.1,0-0.2,0-0.3,0.1
				c-0.1,0.1-0.2,0.1-0.2,0.2c-0.1,0.1-0.1,0.2-0.1,0.3v2.3c0,0.1,0,0.2,0.1,0.3c0.1,0.1,0.1,0.2,0.2,0.2c0.1,0.1,0.2,0.1,0.3,0.1
				h2.3c0.1,0,0.2,0,0.3-0.1c0.1-0.1,0.2-0.1,0.2-0.2c0.1-0.1,0.1-0.2,0.1-0.3v-2.3C84.4,24.9,84.4,24.8,84.3,24.7z M83.9,27.3
				C83.9,27.3,83.9,27.4,83.9,27.3c-0.1,0.1-0.1,0.1-0.1,0.1h-2.2c0,0-0.1,0-0.1,0c0,0,0-0.1,0-0.1v-2.2c0,0,0-0.1,0-0.1
				c0,0,0.1,0,0.1,0h2.2c0,0,0.1,0,0.1,0c0,0,0,0.1,0,0.1V27.3z"/>
			<path class="st2" d="M89.6,25.3v-0.2c0-0.1,0-0.2-0.1-0.3c-0.1-0.1-0.1-0.2-0.2-0.2c-0.1-0.1-0.2-0.1-0.3-0.1h-2.3
				c-0.1,0-0.2,0-0.3,0.1c-0.1,0.1-0.2,0.1-0.2,0.2c-0.1,0.1-0.1,0.2-0.1,0.3v2.3c0,0.1,0,0.2,0.1,0.3c0.1,0.1,0.1,0.2,0.2,0.2
				c0.1,0.1,0.2,0.1,0.3,0.1h2.3c0.1,0,0.2,0,0.3-0.1c0.1-0.1,0.2-0.1,0.2-0.2c0.1-0.1,0.1-0.2,0.1-0.3V26h-1.4v0.5H89v0.8
				c0,0,0,0.1,0,0.1c0,0-0.1,0-0.1,0h-2.2c0,0-0.1,0-0.1,0c0,0,0-0.1,0-0.1v-2.2c0,0,0-0.1,0-0.1c0,0,0.1,0,0.1,0h2.2
				c0,0,0.1,0,0.1,0c0,0,0,0.1,0,0.1v0.2H89.6z"/>
			<path class="st2" d="M91.2,24.4V28h0.5v-3.5H91.2z"/>
			<path class="st2" d="M96.6,24.9v-0.5h-3.2V28h3.2v-0.5h-2.7v-1h2.2v-0.5h-2.2v-1H96.6z"/>
			<path class="st2" d="M101.7,25.3v-0.2c0-0.1,0-0.2-0.1-0.3c-0.1-0.1-0.1-0.2-0.2-0.2c-0.1-0.1-0.2-0.1-0.3-0.1h-2.3
				c-0.1,0-0.2,0-0.3,0.1c-0.1,0.1-0.2,0.1-0.2,0.2c-0.1,0.1-0.1,0.2-0.1,0.3v0.8c0,0.1,0,0.2,0.1,0.3c0.1,0.1,0.1,0.2,0.2,0.2
				c0.1,0.1,0.2,0.1,0.3,0.1h2.2c0,0,0.1,0,0.1,0c0,0,0,0,0,0.1v0.7c0,0,0,0.1,0,0.1c0,0,0,0-0.1,0h-2.2c0,0-0.1,0-0.1,0
				c0,0,0-0.1,0-0.1v-0.2h-0.5v0.2c0,0.1,0,0.2,0.1,0.3c0.1,0.1,0.1,0.2,0.2,0.2c0.1,0.1,0.2,0.1,0.3,0.1h2.3c0.1,0,0.2,0,0.3-0.1
				c0.1-0.1,0.2-0.1,0.2-0.2c0.1-0.1,0.1-0.2,0.1-0.3v-0.8c0-0.1,0-0.2-0.1-0.3c-0.1-0.1-0.1-0.2-0.2-0.2c-0.1-0.1-0.2-0.1-0.3-0.1
				h-2.2c0,0-0.1,0-0.1,0c0,0,0,0,0-0.1v-0.7c0,0,0-0.1,0-0.1c0,0,0.1,0,0.1,0h2.2c0,0,0.1,0,0.1,0c0,0,0,0.1,0,0.1v0.2H101.7z"/>
		</g>
	</g>
</g>
</svg>
